<svg width="320" height="40" viewBox="0 0 320 40" fill="none" xmlns="http://www.w3.org/2000/svg">
<path d="M39.8712 11.8062C39.8488 10.1267 39.5338 8.46386 38.9405 6.89212C38.4259 5.56637 37.64 4.36234 36.633 3.35698C35.6259 2.35162 34.4199 1.56703 33.092 1.05333C31.5378 0.470911 29.896 0.155985 28.2363 0.121965C26.0995 0.0266106 25.422 0 19.9978 0C14.5735 0 13.8783 1.48698e-07 11.757 0.121965C10.0981 0.156235 8.45702 0.471157 6.9036 1.05333C5.57543 1.56667 4.36922 2.35114 3.36213 3.35654C2.35505 4.36195 1.56928 5.56616 1.05509 6.89212C0.470526 8.44247 0.15576 10.0812 0.124389 11.7374C0.028876 13.8729 0 14.5493 0 19.9645C0 25.3798 -1.65495e-08 26.0716 0.124389 28.1916C0.157708 29.8503 0.470902 31.4869 1.05509 33.0414C1.57014 34.3669 2.3565 35.5706 3.36392 36.5756C4.37134 37.5806 5.57766 38.3647 6.90582 38.8779C8.45498 39.4838 10.0963 39.8212 11.7592 39.8758C13.8983 39.9712 14.5757 40 20 40C25.4243 40 26.1195 40 28.2408 39.8758C29.9004 39.8432 31.5423 39.529 33.0964 38.9467C34.424 38.4324 35.6297 37.6476 36.6367 36.6423C37.6437 35.637 38.4298 34.4333 38.9449 33.1079C39.5291 31.5556 39.8423 29.9191 39.8756 28.2581C39.9711 26.1249 40 25.4485 40 20.031C39.9956 14.6158 39.9956 13.9284 39.8712 11.8062ZM19.9845 30.2051C14.3114 30.2051 9.71568 25.617 9.71568 19.9534C9.71568 14.2898 14.3114 9.70174 19.9845 9.70174C22.7079 9.70174 25.3198 10.7818 27.2456 12.7044C29.1713 14.627 30.2532 17.2345 30.2532 19.9534C30.2532 22.6724 29.1713 25.2799 27.2456 27.2025C25.3198 29.125 22.7079 30.2051 19.9845 30.2051ZM30.6619 11.7131C30.3474 11.7133 30.0359 11.6517 29.7453 11.5317C29.4546 11.4116 29.1905 11.2356 28.9681 11.0135C28.7457 10.7915 28.5693 10.5279 28.4491 10.2377C28.3289 9.94753 28.2671 9.63655 28.2674 9.32254C28.2674 9.00876 28.3293 8.69805 28.4496 8.40816C28.5699 8.11826 28.7462 7.85486 28.9684 7.63298C29.1907 7.4111 29.4545 7.2351 29.7449 7.11502C30.0353 6.99495 30.3465 6.93314 30.6608 6.93314C30.9751 6.93314 31.2863 6.99495 31.5767 7.11502C31.8671 7.2351 32.131 7.4111 32.3532 7.63298C32.5754 7.85486 32.7517 8.11826 32.872 8.40816C32.9923 8.69805 33.0542 9.00876 33.0542 9.32254C33.0542 10.6442 31.9836 11.7131 30.6619 11.7131Z" fill="#A5E2F3"/>
<path d="M19.9846 26.6125C23.6685 26.6125 26.6549 23.631 26.6549 19.9532C26.6549 16.2754 23.6685 13.2939 19.9846 13.2939C16.3006 13.2939 13.3142 16.2754 13.3142 19.9532C13.3142 23.631 16.3006 26.6125 19.9846 26.6125Z" fill="#A5E2F3"/>
<path d="M218.967 5.84853C215.95 4.50069 212.759 3.54275 209.477 3C209.067 3.70499 208.591 4.65597 208.26 5.40928C204.774 4.90195 201.228 4.90195 197.742 5.40928C197.377 4.58609 196.966 3.78188 196.512 3C193.227 3.54364 190.033 4.50384 187.015 5.85511C181.01 14.5215 179.381 22.9726 180.195 31.303C183.701 33.8304 187.64 35.7573 191.836 36.9978C192.779 35.7589 193.612 34.4477 194.329 33.0775C192.966 32.5816 191.652 31.9708 190.403 31.2524C190.732 31.0196 191.054 30.7759 191.364 30.5255C198.934 33.9055 207.156 33.9055 214.636 30.5255C214.951 30.7759 215.273 31.0196 215.597 31.2524C214.353 31.9684 213.035 32.5834 211.664 33.0797C212.379 34.4505 213.213 35.7618 214.157 37C218.357 35.7603 222.298 33.8318 225.805 31.3008C226.759 21.6461 224.174 13.2718 218.967 5.84853ZM195.359 26.1791C193.087 26.1791 191.224 24.1542 191.224 21.6878C191.224 19.2214 193.048 17.1921 195.359 17.1921C197.671 17.1921 199.534 19.217 199.495 21.6878C199.497 24.1542 197.671 26.1791 195.359 26.1791ZM210.641 26.1791C208.368 26.1791 206.505 24.1542 206.505 21.6878C206.505 19.2214 208.329 17.1921 210.641 17.1921C212.952 17.1921 214.815 19.217 214.776 21.6878C214.776 24.1542 212.952 26.1791 210.641 26.1791Z" fill="#A5E2F3"/>
<path fill-rule="evenodd" clip-rule="evenodd" d="M90 20.1117C90 30.055 97.2217 38.3233 106.667 40V25.555H101.667V20H106.667V15.555C106.667 10.555 109.888 7.77833 114.445 7.77833C115.888 7.77833 117.445 8 118.888 8.22167V13.3333H116.333C113.888 13.3333 113.333 14.555 113.333 16.1117V20H118.667L117.778 25.555H113.333V40C122.778 38.3233 130 30.0567 130 20.1117C130 9.05 121 0 110 0C99 0 90 9.05 90 20.1117Z" fill="#A5E2F3"/>
<path d="M317.161 6.01228C316.976 5.99591 316.79 5.99591 316.606 6.01228H278.694C278.451 6.01551 278.21 6.04689 277.977 6.10558L297.542 22.8866L317.161 6.01228Z" fill="#A5E2F3"/>
<path d="M319.165 7.6333L299.451 24.5426C298.944 24.977 298.257 25.2208 297.542 25.2208C296.826 25.2208 296.14 24.977 295.633 24.5426L276.095 7.76158C276.035 7.95171 276.003 8.14763 276 8.34466V31.6679C276 32.2864 276.285 32.8797 276.793 33.317C277.301 33.7544 277.99 34.0002 278.708 34.0002H316.619C317.338 34.0002 318.026 33.7544 318.534 33.317C319.042 32.8797 319.327 32.2864 319.327 31.6679V8.34466C319.317 8.10169 319.262 7.86168 319.165 7.6333ZM280.563 31.6679H278.681V30.0002L288.524 21.5922L290.433 23.2365L280.563 31.6679ZM316.592 31.6679H314.697L304.826 23.2365L306.735 21.5922L316.579 30.0002L316.592 31.6679Z" fill="#A5E2F3"/>
</svg>
