<svg width="46" height="34" viewBox="0 0 46 34" fill="none" xmlns="http://www.w3.org/2000/svg">
<path d="M38.9667 2.84853C35.95 1.50069 32.7586 0.542749 29.4769 0C29.0674 0.704993 28.5913 1.65597 28.2601 2.40928C24.7743 1.90195 21.228 1.90195 17.7422 2.40928C17.3766 1.58609 16.9659 0.781885 16.5117 0C13.2271 0.543644 10.0332 1.50384 7.01492 2.85511C1.00959 11.5215 -0.618824 19.9726 0.195381 28.303C3.70096 30.8304 7.63961 32.7573 11.8357 33.9978C12.7786 32.7589 13.6125 31.4477 14.329 30.0775C12.9662 29.5816 11.6523 28.9708 10.4028 28.2524C10.7317 28.0196 11.0537 27.7759 11.3642 27.5255C18.9336 30.9055 27.1561 30.9055 34.6358 27.5255C34.9509 27.7759 35.2729 28.0196 35.5972 28.2524C34.3529 28.9684 33.035 29.5834 31.6642 30.0797C32.3794 31.4505 33.2134 32.7618 34.1574 34C38.3568 32.7603 42.2982 30.8318 45.8046 28.3008C46.7592 18.6461 44.1739 10.2718 38.9667 2.84853ZM15.3594 23.1791C13.087 23.1791 11.2239 21.1542 11.2239 18.6878C11.2239 16.2214 13.0479 14.1921 15.3594 14.1921C17.6709 14.1921 19.5339 16.217 19.4948 18.6878C19.4971 21.1542 17.6709 23.1791 15.3594 23.1791ZM30.6407 23.1791C28.3682 23.1791 26.5052 21.1542 26.5052 18.6878C26.5052 16.2214 28.3291 14.1921 30.6407 14.1921C32.9522 14.1921 34.8152 16.217 34.7761 18.6878C34.7761 21.1542 32.9522 23.1791 30.6407 23.1791Z" fill="#A5E2F3"/>
</svg>
