<svg width="44" height="28" viewBox="0 0 44 28" fill="none" xmlns="http://www.w3.org/2000/svg">
<path d="M41.1609 0.0122843C40.9764 -0.00409477 40.7904 -0.00409477 40.6058 0.0122843H2.69442C2.45144 0.0155089 2.21007 0.0468881 1.97681 0.105577L21.5418 16.8866L41.1609 0.0122843Z" fill="#A5E2F3"/>
<path d="M43.1648 1.6333L23.4509 18.5426C22.9435 18.977 22.2572 19.2208 21.5418 19.2208C20.8264 19.2208 20.1401 18.977 19.6327 18.5426L0.0947786 1.76158C0.0347152 1.95171 0.00286865 2.14763 0 2.34466V25.6679C0 26.2864 0.285302 26.8797 0.793142 27.317C1.30098 27.7544 1.98976 28.0002 2.70796 28.0002H40.6194C41.3376 28.0002 42.0263 27.7544 42.5342 27.317C43.042 26.8797 43.3273 26.2864 43.3273 25.6679V2.34466C43.3165 2.10169 43.2617 1.86168 43.1648 1.6333ZM4.56291 25.6679H2.68088V24.0002L12.5243 15.5922L14.4334 17.2365L4.56291 25.6679ZM40.5923 25.6679H38.6967L28.8262 17.2365L30.7353 15.5922L40.5787 24.0002L40.5923 25.6679Z" fill="#A5E2F3"/>
</svg>
